<svg width="100%" height="100%" viewBox="0 0 128 128" fill="none" xmlns="http://www.w3.org/2000/svg">
<path fill-rule="evenodd" clip-rule="evenodd" d="M19 19H109V32H119V19V9H109H19H9V19V109V119H19H109H119V109V97H109V109H19V19Z" fill="currentColor"/>
<path d="M58.9609 97L70.9062 35.3828H92.2188C97.6042 35.3828 102.13 36.5286 105.797 38.8203C109.435 41.1693 111.956 44.4062 113.359 48.5312C114.161 50.8802 114.562 53.4154 114.562 56.1367C114.562 58.1992 114.333 60.3763 113.875 62.668L112.457 69.7148C111.598 74.069 110.395 77.8646 108.848 81.1016C107.301 84.3385 105.267 87.1745 102.746 89.6094C100.225 92.0443 97.0885 93.8919 93.3359 95.1523C89.5833 96.3841 85.2148 97 80.2305 97H58.9609ZM73.0117 85.8281H82.4648C86.9049 85.8281 90.7578 84.5104 94.0234 81.875C97.2891 79.2396 99.4661 75.1862 100.555 69.7148L101.973 62.668C102.288 60.9206 102.445 59.3451 102.445 57.9414C102.445 56.9961 102.374 56.1081 102.23 55.2773C101.887 53.2435 101.128 51.582 99.9531 50.293C98.7786 49.0039 97.3607 48.0586 95.6992 47.457C94.0664 46.8555 92.1758 46.5547 90.0273 46.5547H80.6172L73.0117 85.8281Z" fill="currentColor"/>
</svg>
